<?xml version="1.0" standalone="no"?>
<!DOCTYPE svg PUBLIC "-//W3C//DTD SVG 20010904//EN"
 "http://www.w3.org/TR/2001/REC-SVG-20010904/DTD/svg10.dtd">
<svg version="1.0" xmlns="http://www.w3.org/2000/svg"
 width="890.000000pt" height="1280.000000pt" viewBox="0 0 890.000000 1280.000000"
 preserveAspectRatio="xMidYMid meet">
<g transform="translate(0.000000,1280.000000) scale(0.100000,-0.100000)"
fill="#000000" stroke="none">
<path d="M7034 12781 c-156 -44 -243 -156 -306 -389 -16 -59 -21 -108 -21
-207 0 -113 3 -140 25 -207 52 -157 137 -273 264 -357 103 -69 191 -95 298
-88 45 2 104 14 134 25 52 20 128 70 119 78 -2 3 -29 -5 -58 -17 -82 -33 -208
-37 -296 -11 -181 55 -346 236 -394 432 -33 133 -6 355 60 493 56 118 120 173
229 196 102 21 177 8 229 -41 27 -25 30 -9 7 28 -19 27 -48 45 -115 68 -56 20
-99 19 -175 -3z"/>
<path d="M4320 12349 c-100 -18 -245 -51 -253 -58 -4 -4 22 -146 58 -316 43
-201 62 -312 56 -318 -15 -15 -98 20 -144 62 -23 21 -54 65 -74 109 -26 54
-47 81 -80 107 -92 70 -238 119 -284 95 -20 -11 -21 -18 -16 -79 3 -36 25
-126 48 -198 24 -73 40 -136 36 -139 -4 -4 -42 29 -85 72 -164 166 -243 192
-350 114 -39 -28 -142 -131 -146 -144 0 -4 34 -22 78 -41 109 -47 173 -88 280
-176 269 -223 560 -637 844 -1203 89 -176 116 -239 116 -270 l1 -41 -76 3
c-76 4 -77 4 -117 -32 -40 -36 -42 -37 -158 -46 -139 -12 -313 -49 -444 -96
-89 -32 -103 -34 -221 -34 -73 0 -164 -7 -215 -16 -142 -26 -124 -35 -180 89
-47 104 -94 110 -180 20 -28 -29 -55 -53 -60 -52 -5 0 -35 37 -66 82 -198 283
-490 490 -828 586 -204 58 -278 66 -575 65 -336 -2 -465 -19 -520 -70 -24 -22
-25 -28 -25 -144 0 -140 -15 -128 142 -105 64 10 105 12 111 6 6 -6 -36 -32
-114 -71 -281 -141 -302 -162 -303 -300 l-1 -75 148 -48 c81 -26 147 -52 147
-58 0 -5 -12 -15 -27 -21 -98 -40 -214 -102 -251 -133 -46 -40 -51 -63 -28
-119 13 -32 16 -34 97 -45 113 -16 201 -39 218 -56 13 -13 9 -20 -31 -58 -44
-43 -118 -160 -118 -188 0 -16 97 -133 114 -136 6 -2 31 28 56 65 91 135 232
263 308 278 49 10 40 -10 -42 -97 -72 -74 -116 -141 -116 -173 0 -18 36 -40
50 -31 6 3 10 14 10 24 0 33 59 136 105 184 154 162 424 228 835 206 176 -9
385 -40 403 -58 7 -7 10 -39 9 -79 -3 -57 0 -72 18 -95 l22 -27 -50 -128 c-69
-174 -82 -222 -89 -328 -12 -180 52 -348 182 -480 78 -79 177 -148 239 -166
23 -6 79 -40 125 -75 46 -35 87 -63 92 -63 5 0 9 -6 9 -14 0 -10 -20 -18 -57
-26 -146 -29 -203 -59 -289 -156 -125 -139 -264 -229 -669 -430 -148 -74 -273
-140 -277 -148 -4 -8 -1 -49 8 -91 9 -42 13 -82 11 -89 -3 -8 -92 -94 -199
-193 -485 -451 -760 -683 -808 -683 -19 0 -77 60 -184 187 -79 95 -114 123
-127 102 -13 -21 -11 -44 11 -106 42 -119 32 -128 -150 -129 -156 -2 -180 -7
-180 -36 0 -36 29 -57 117 -83 120 -37 116 -50 -50 -136 -71 -37 -137 -75
-148 -85 -19 -17 -19 -18 3 -42 21 -22 28 -24 93 -18 39 3 97 12 130 19 67 16
85 13 85 -13 0 -17 -19 -44 -98 -141 -23 -28 -41 -57 -39 -63 2 -6 16 -12 31
-14 29 -4 71 20 160 90 60 48 90 48 94 0 2 -18 -6 -57 -17 -88 -26 -68 -26
-74 -1 -74 22 0 53 43 134 188 96 171 72 154 561 412 326 172 598 320 683 372
34 21 66 38 70 38 4 0 19 -23 34 -50 16 -28 34 -50 41 -50 39 0 130 90 301
295 200 240 258 304 316 344 32 22 65 41 74 41 24 0 21 -81 -5 -133 -32 -62
-162 -254 -333 -492 -138 -192 -813 -1096 -901 -1208 -36 -45 -38 -49 -32
-106 17 -198 267 -438 655 -630 56 -28 102 -54 102 -57 0 -3 11 -209 25 -457
57 -1020 105 -1729 161 -2373 6 -67 5 -74 -20 -107 -23 -30 -24 -36 -11 -47 8
-7 15 -16 15 -20 0 -4 -24 -43 -54 -88 -30 -44 -57 -94 -60 -110 -10 -44 19
-113 207 -482 94 -184 196 -393 227 -465 l56 -130 54 -27 c30 -15 64 -27 75
-28 25 0 85 36 85 51 0 6 -29 40 -65 76 -45 45 -66 74 -69 96 -3 18 -19 133
-36 257 -37 266 -93 581 -119 667 -21 70 -25 -14 39 918 62 896 149 1953 166
2008 7 22 8 22 117 -9 51 -14 177 -48 280 -74 104 -27 192 -52 195 -55 12 -12
21 -2368 9 -2390 -6 -11 -48 -59 -94 -107 -46 -48 -90 -102 -97 -120 -29 -69
-135 -595 -166 -822 -12 -89 -33 -131 -90 -176 -74 -59 -62 -100 29 -100 66 0
120 24 138 60 69 146 122 244 235 433 72 122 140 231 150 243 10 11 18 24 18
28 0 4 28 57 61 117 67 120 65 107 44 259 -5 36 13 135 89 475 167 758 281
1306 356 1716 23 123 45 227 49 232 4 4 70 0 147 -9 93 -11 192 -15 299 -12
155 3 163 5 220 33 50 25 64 38 82 77 40 84 69 224 95 453 17 148 17 1065 0
1365 -30 524 -80 1176 -117 1534 -20 188 -19 222 13 362 23 96 35 129 61 161
70 87 377 354 759 661 154 124 252 209 252 220 0 31 -68 285 -98 369 l-30 82
25 48 c81 154 268 408 465 630 100 113 443 453 484 480 20 13 27 12 62 -6 53
-27 313 -71 418 -71 101 0 126 16 145 90 7 28 20 57 28 64 80 69 121 116 121
137 0 13 -14 44 -30 69 -16 25 -30 54 -30 65 0 11 16 40 35 64 39 48 44 81 21
136 -9 21 -12 44 -7 62 6 26 29 37 257 135 137 60 255 108 262 108 28 0 11
-40 -25 -59 l-38 -20 33 -1 32 0 0 -117 c0 -178 15 -323 71 -725 28 -202 49
-373 46 -381 -3 -8 -34 -20 -69 -27 -91 -19 -94 -30 -7 -30 80 0 99 -9 99 -46
0 -13 5 -26 10 -29 6 -4 10 8 10 28 0 19 6 39 13 45 6 5 47 19 90 31 133 36
244 105 340 212 97 107 150 229 168 384 34 314 -127 575 -421 679 -76 27 -97
30 -202 30 -93 1 -119 4 -123 15 -3 8 -2 18 2 22 4 4 96 47 203 94 284 126
287 128 306 189 8 28 18 101 21 163 6 120 -5 207 -37 279 -36 83 -132 164
-194 164 -114 0 -572 -290 -1271 -804 -104 -77 -205 -150 -224 -163 l-33 -23
-30 25 c-35 30 -62 31 -104 6 -43 -26 -73 -79 -84 -147 -5 -32 -13 -61 -17
-64 -5 -4 -95 -74 -202 -156 -106 -82 -233 -180 -283 -218 -51 -40 -93 -65
-98 -60 -12 13 -100 247 -95 255 3 3 25 12 50 19 25 7 45 16 45 20 0 10 -37
20 -80 20 -19 0 -40 4 -46 8 -16 11 -134 239 -127 246 4 3 31 6 62 6 31 0 66
3 78 6 47 13 55 112 23 300 -11 65 -28 134 -38 154 -16 33 -20 35 -59 32 -58
-4 -147 -31 -346 -103 -92 -33 -175 -58 -183 -55 -28 11 -24 19 131 269 26 42
45 80 42 83 -3 4 -63 -33 -133 -81 -156 -107 -223 -141 -243 -121 -11 11 -11
21 -1 52 15 48 117 245 220 424 95 165 120 215 120 234 0 31 -206 116 -363
151 -77 17 -79 17 -98 -2 -31 -30 -65 -126 -100 -273 -17 -74 -33 -141 -35
-149 -3 -10 -16 -12 -53 -7 l-48 6 -7 -67 c-8 -74 -36 -150 -61 -159 -8 -3
-26 -3 -39 0 -40 10 -50 59 -42 220 3 78 9 206 12 286 l6 145 -27 25 c-25 24
-33 25 -148 27 -67 1 -147 -3 -177 -8z m4005 -1344 c146 -37 303 -145 380
-261 63 -95 88 -181 88 -304 0 -173 -49 -305 -154 -424 -83 -92 -242 -193
-335 -212 l-30 -6 -12 194 c-7 106 -26 288 -42 403 -52 362 -81 598 -76 612 7
18 106 17 181 -2z m-2537 -174 c70 -133 69 -134 -13 -145 -82 -12 -192 -44
-276 -83 -48 -22 -83 -33 -89 -27 -12 12 6 292 19 308 6 7 44 23 84 34 85 25
107 29 168 31 l45 1 62 -119z m-458 -101 c-5 -47 -9 -119 -9 -161 -1 -61 -5
-82 -21 -102 -25 -31 -25 -33 -2 -39 17 -5 20 -21 26 -134 7 -139 31 -306 46
-333 12 -20 10 -45 19 248 8 225 10 256 26 267 29 21 182 73 327 111 107 28
140 34 151 24 24 -19 139 -280 132 -300 -3 -12 0 -21 9 -24 9 -4 30 -34 48
-69 35 -69 47 -60 29 23 -6 24 -7 47 -3 50 4 4 66 23 137 44 72 20 188 62 260
91 71 30 136 53 145 52 9 -2 -18 -26 -63 -56 -284 -193 -614 -562 -868 -973
-44 -72 -67 -100 -85 -104 -13 -3 -34 -7 -47 -10 -88 -18 -340 -267 -533 -528
-27 -37 -54 -66 -61 -67 -7 0 -15 17 -18 38 -3 20 -13 66 -21 102 -12 51 -13
85 -5 160 6 53 6 126 2 165 -8 65 -55 203 -86 251 -10 16 -12 46 -8 123 l6
102 -58 56 c-40 39 -55 60 -49 68 140 191 263 429 384 747 27 70 62 147 79
171 37 54 101 111 111 100 4 -4 4 -46 0 -93z"/>
<path d="M7087 9920 c-73 -14 -64 -21 53 -40 98 -16 245 -69 303 -109 93 -64
130 -147 109 -243 -30 -131 -151 -233 -389 -329 -45 -18 -79 -37 -76 -42 6
-10 83 -1 168 20 153 37 295 139 350 250 26 51 29 69 30 148 0 103 -16 144
-86 220 -83 90 -316 154 -462 125z"/>
<path d="M6945 9785 c-17 -53 -19 -84 -15 -265 6 -311 5 -355 -4 -630 -9 -248
-2 -450 14 -450 15 0 41 223 65 555 16 223 15 270 -11 495 -8 69 -18 177 -22
240 l-8 115 -19 -60z"/>
<path d="M7330 9141 c-104 -34 -237 -97 -227 -107 2 -3 58 7 123 21 146 31
166 31 229 1 65 -31 127 -96 162 -171 24 -53 28 -72 28 -155 -1 -77 -5 -103
-23 -140 -34 -70 -75 -114 -140 -148 -83 -44 -151 -60 -302 -68 -175 -9 -184
-22 -30 -45 113 -16 260 -7 333 20 152 59 247 208 247 386 -1 163 -87 313
-220 380 -56 28 -138 40 -180 26z"/>
<path d="M7798 7457 c-508 -503 -978 -965 -1045 -1028 -78 -72 -123 -121 -123
-134 0 -33 15 -48 40 -40 71 23 2106 2115 2057 2115 -3 0 -421 -411 -929 -913z"/>
<path d="M8403 7873 c-590 -672 -912 -1055 -1033 -1228 -137 -194 -333 -455
-391 -521 -97 -107 -124 -159 -97 -182 19 -15 28 -7 88 83 98 147 557 730
1289 1635 162 201 310 384 329 408 19 23 32 42 29 42 -3 0 -99 -107 -214 -237z"/>
<path d="M6269 5909 c-18 -18 -21 -30 -17 -88 4 -83 43 -165 105 -222 76 -70
148 -80 207 -29 64 57 74 157 21 226 -81 106 -259 170 -316 113z m177 -90 c77
-29 134 -81 134 -123 0 -39 -22 -71 -62 -92 -42 -22 -70 -12 -118 43 -71 80
-97 152 -68 181 17 17 50 15 114 -9z"/>
</g>
</svg>
